<svg xmlns="http://www.w3.org/2000/svg" width="1792" height="800" viewBox="0 0 474.1 211.7"><g transform="translate(0 -85.3)"><g stroke="#1954bf" stroke-width="25.5" fill="none" stroke-linejoin="round"><path d="M84.7 108c-13 0-26 0-30 13.7s1.2 41.2-3 54.9c-4.3 13.7-18 13.7-31.7 13.7m64.7 82.4c-13 0-26 0-30-13.7s1.2-41.2-3-55c-4.3-13.7-18-13.7-31.7-13.7M147.6 108c-13 0-26 0-30 13.7s1.2 41.2-3 54.9c-4.3 13.7-18 13.7-31.7 13.7m64.7 82.4c-13 0-26 0-30-13.7s1.2-41.2-3-55c-4.3-13.7-18-13.7-31.7-13.7" stroke-width="18.6"/></g><g stroke="#1954bf" stroke-width="25.5" fill="none" stroke-linejoin="round"><path d="M391.6 108c13 0 26 0 30 13.7 3.9 13.7-1.3 41.2 3 54.9 4.2 13.7 18 13.7 31.6 13.7m-64.6 82.4c13 0 26 0 30-13.7 3.9-13.7-1.3-41.2 3-55 4.2-13.7 18-13.7 31.6-13.7M328.7 108c13 0 26 0 30 13.7 3.9 13.7-1.3 41.2 3 54.9 4.2 13.7 18 13.7 31.6 13.7m-64.6 82.4c13 0 26 0 30-13.7 3.9-13.7-1.3-41.2 3-55 4.2-13.7 18-13.7 31.6-13.7" stroke-width="18.6"/></g><circle r="90" cy="190.4" cx="238.9" fill="#1954bf" fill-rule="evenodd"/><g transform="translate(145 94.8) scale(3.84844)" fill="#fff"><circle r="4.7" cy="11.6" cx="24"/><path d="M17.4 18.8v3h1.1c2.3 0 2.3 1.3 2.3 1.3v13s0 1.3-2.3 1.3h-1.1v3.4h14.2v-3.4h-1.1c-2.3 0-2.3-1.4-2.3-1.4V18.8"/></g></g></svg>